<svg width="94" height="101" viewBox="0 0 94 101" fill="none" xmlns="http://www.w3.org/2000/svg">
<path d="M43.5394 100.487C71.1537 100.487 93.5394 78.1015 93.5394 50.4873C93.5394 22.8731 71.1537 0.487305 43.5394 0.487305C30.9489 0.487305 20.3345 8.94857 17.0724 20.4951C16.3995 22.8769 16.0394 25.3901 16.0394 27.9873C16.0394 37.2881 20.6567 45.5105 27.724 50.4873C32.1974 53.6375 37.6524 55.4873 43.5394 55.4873C53.2044 55.4873 61.0394 63.3223 61.0394 72.9873C61.0394 82.6523 53.2044 90.4873 43.5394 90.4873C33.3908 90.4873 24.1248 86.7078 17.0724 80.4795C16.1755 79.6875 15.3145 78.8558 14.4919 77.9873C12.879 76.2842 11.4142 74.4533 10.1183 72.4873C9.22296 71.1372 7.68955 70.2331 5.94824 70.2331C3.18682 70.2331 0.948242 72.4716 0.948242 75.2331C0.948242 76.2508 1.25231 77.1975 1.77456 77.9873C10.7182 91.5429 26.0843 100.487 43.5394 100.487C56.13 100.487 66.7444 92.026 70.0065 80.4795C70.6794 78.0977 71.0394 75.5845 71.0394 72.9873C71.0394 63.6865 66.4222 55.4641 59.3548 50.4873C54.8815 47.3372 49.4265 45.4873 43.5394 45.4873C33.8745 45.4873 26.0394 37.6523 26.0394 27.9873C26.0394 18.3223 33.8745 10.4873 43.5394 10.4873C65.6308 10.4873 83.5394 28.3959 83.5394 50.4873C83.5394 62.43 78.3056 73.1503 70.0065 80.4795C66.7444 92.026 56.13 100.487 43.5394 100.487Z" fill="white"/>
<path d="M48.5394 25.4873V30.4873C48.5394 33.2487 46.3009 35.4873 43.5394 35.4873C40.778 35.4873 38.5394 33.2487 38.5394 30.4873V25.4873C38.5394 22.7259 40.778 20.4873 43.5394 20.4873C46.3009 20.4873 48.5394 22.7259 48.5394 25.4873Z" fill="white"/>
<path d="M48.5394 70.4795V75.4795C48.5394 78.241 46.3009 80.4795 43.5394 80.4795C40.778 80.4795 38.5394 78.241 38.5394 75.4795V70.4795C38.5394 67.7181 40.778 65.4795 43.5394 65.4795C46.3009 65.4795 48.5394 67.7181 48.5394 70.4795Z" fill="white"/>
</svg>
